# AST/ASF file generated using VICON BodyLanguage
# -----------------------------------------------
:version 1.10
:name VICON
:units
  mass 1.0
  length 0.45
  angle deg
:documentation
   .ast/.asf automatically generated from VICON data using
   VICON BodyBuilder and BodyLanguage model FoxedUp or BRILLIANT.MOD
:root
   order TX TY TZ RX RY RZ
   axis XYZ
   position 0 0 0  
   orientation 0 0 0 
:bonedata
  begin
     id 1 
     name lhipjoint
     direction 0.635376 -0.686425 0.353719 
     length 2.47244 
     axis 0 0 0  XYZ
  end
  begin
     id 2 
     name lfemur
     direction 0.34202 -0.939693 0  
     length 7.25268  
     axis 0 0 20  XYZ
    dof rx ry rz
    limits (-160.0 20.0)
           (-70.0 70.0)
           (-60.0 70.0)
  end
  begin
     id 3 
     name ltibia
     direction 0.34202 -0.939693 0   
     length 7.6767   
     axis 0 0 20   XYZ
    dof rx
    limits (-10.0 170.0)
  end
  begin
     id 4 
     name lfoot
     direction 0.0803374 -0.220725 0.972022   
     length 2.22945   
     axis -90 7.62852e-016 20   XYZ
    dof rx rz
    limits (-45.0 90.0)
           (-70.0 20.0)
  end
  begin
     id 5 
     name ltoes
     direction 1.53579e-011 -4.21994e-011 1   
     length 1.11848   
     axis -90 7.62852e-016 20   XYZ
    dof rx
    limits (-90.0 20.0)
  end
  begin
     id 6 
     name rhipjoint
     direction -0.664428 -0.664335 0.342336   
     length 2.55466  
     axis 0 0 0  XYZ 
  end
  begin
     id 7 
     name rfemur
     direction -0.34202 -0.939693 0   
     length 6.83172   
     axis 0 0 -20   XYZ
    dof rx ry rz
    limits (-160.0 20.0)
           (-70.0 70.0)
           (-70.0 60.0)
  end
  begin
     id 8 
     name rtibia
     direction -0.34202 -0.939693 0   
     length 7.62692   
     axis 0 0 -20   XYZ
    dof rx
    limits (-10.0 170.0)
 end
 begin
     id 9 
     name rfoot
     direction -0.0949276 -0.260811 0.960711   
     length 2.19684  
     axis -90 -7.62852e-016 -20   XYZ
    dof rx rz
    limits (-45.0 90.0)
           (-20.0 70.0)
  end
  begin
     id 10 
     name rtoes
     direction -1.53543e-011 -4.2183e-011 1   
     length 1.09848   
     axis -90 -7.62852e-016 -20   XYZ
    dof rx
    limits (-90.0 20.0)
  end
  begin
     id 11 
     name lowerback
     direction 0.0118782 0.999815 -0.0151555   
     length 2.15772   
     axis 0 0 0   XYZ
    dof rx ry rz
    limits (-20.0 45.0)
           (-30.0 30.0)
           (-30.0 30.0)
  end
  begin
     id 12 
     name upperback
     direction 0.00130825 0.999065 0.0432113   
     length 2.14863   
     axis 0 0 0   XYZ
    dof rx ry rz
    limits (-20.0 45.0)
           (-30.0 30.0)
           (-30.0 30.0)
  end
  begin
     id 13 
     name thorax
     direction -0.00347005 0.998773 0.0494011   
     length 2.14936   
     axis 0 0 0   XYZ
    dof rx ry rz
    limits (-20.0 45.0)
           (-30.0 30.0)
           (-30.0 30.0)
  end
  begin
     id 14 
     name lowerneck
     direction -0.0262159 0.99424 0.103921   
     length 1.69373   
     axis 0 0 0   XYZ
    dof rx ry rz
    limits (-20.0 45.0)
           (-30.0 30.0)
           (-30.0 30.0)
  end
  begin
     id 15 
     name upperneck
     direction 0.0353511 0.977394 -0.20845   
     length 1.70857   
     axis 0 0 0   XYZ
    dof rx ry rz
    limits (-20.0 45.0)
           (-30.0 30.0)
           (-30.0 30.0)
  end
  begin
     id 16
     name head
     direction 0.0139214 0.996594 -0.0812836  
     length 1.72777  
     axis 0 0 0   XYZ
    dof rx ry rz
    limits (-20.0 45.0)
           (-30.0 30.0)
           (-30.0 30.0)
  end
  begin
     id 17 
     name lclavicle
     direction 0.841247 0.537205 -0.0609508  
     length 3.55371  
     axis 0 0 0   XYZ
    dof ry rz
    limits (-20.0 10.0)
           (0.0 20.0)
  end
  begin
     id 18 
     name lhumerus
     direction 1 -4.48964e-011 1.60116e-018   
     length 4.91377   
     axis -180 -30 -90   XYZ
    dof rx ry rz
    limits (-60.0 90.0)
           (-90.0 90.0)
           (-90.0 90.0)
  end
  begin
     id 19
     name lradius
     direction 1 -4.48989e-011 -8.93847e-027   
     length 3.00291   
     axis -180 -30 -90   XYZ
    dof rx
    limits (-10.0 170.0)
  end
  begin
     id 20
     name lwrist
     direction 1 -4.48932e-011 -7.31504e-027   
     length 1.50145   
     axis 5.74121e-015 90 90   XYZ
    dof ry
    limits (-180.0 0.0)
 end
  begin
     id 21 
     name lhand
     direction 1 -4.48971e-011 -1.46301e-026   
     length 0.450922   
     axis 9.33524e-015 90 90   XYZ
    dof rx rz
    limits (-90.0 90.0)
           (-45.0 45.0)
  end
  begin
     id 22 
     name lfingers
     direction 1 -4.49039e-011 -2.92602e-026   
     length 0.363545   
     axis 1.86705e-014 90 90   XYZ
    dof rx
    limits (0.0 90.0)
  end
  begin
     id 23
     name lthumb
     direction 0.707107 -6.34941e-011 0.707107   
     length 0.52198   
     axis -90 45 2.85299e-015   XYZ
    dof rx rz
    limits (-45.0 45.0)
           (-45.0 45.0)
  end
  begin
     id 24 
     name rclavicle
     direction -0.825079 0.56158 -0.0622297   
     length 3.39909  
     axis 0 0 0   XYZ 
    dof ry rz
    limits (-10.0 20.0)
           (-20.0 0.0)
  end
  begin
     id 25 
     name rhumerus
     direction -1 -4.48965e-011 1.61691e-027  
     length 4.86725   
     axis -180 30 90   XYZ
    dof rx ry rz
    limits (-90.0 60.0)
           (-90.0 90.0)
           (-90.0 90.0)
  end
  begin
     id 26 
     name rradius
     direction -1 -4.48964e-011 -2.25776e-027   
     length 3.17144   
     axis -180 30 90   XYZ
    dof rx
    limits (-10.0 170.0)
  end
  begin
     id 27 
     name rwrist
     direction -1 -4.48961e-011 -7.31504e-027   
     length 1.58572   
     axis 5.74121e-015 -90 -90   XYZ
    dof ry
    limits (-180.0 0.0)
  end
  begin
     id 28
     name rhand
     direction -1 -4.49013e-011 -1.46301e-026   
     length 0.419368   
     axis 9.33524e-015 -90 -90   XYZ
    dof rx rz
    limits (-90.0 90.0)
           (-45.0 45.0)
  end
  begin
     id 29
     name rfingers
     direction -1 -4.489e-011 -2.92602e-026   
     length 0.338105   
     axis 1.86705e-014 -90 -90   XYZ
    dof rx
    limits (0.0 90.0)
  end
  begin
     id 30
     name rthumb
     direction -0.707107 -6.35022e-011 0.707107   
     length 0.485453   
     axis -90 -45 -2.85299e-015   XYZ
    dof rx rz
    limits (-45.0 45.0)
           (-45.0 45.0)
  end
:hierarchy
  begin
    root lhipjoint rhipjoint lowerback
    lhipjoint lfemur
    lfemur ltibia
    ltibia lfoot
    lfoot ltoes
    rhipjoint rfemur
    rfemur rtibia
    rtibia rfoot
    rfoot rtoes
    lowerback upperback
    upperback thorax
    thorax lowerneck lclavicle rclavicle
    lowerneck upperneck
    upperneck head
    lclavicle lhumerus
    lhumerus lradius
    lradius lwrist
    lwrist lhand lthumb
    lhand lfingers
    rclavicle rhumerus
    rhumerus rradius
    rradius rwrist
    rwrist rhand rthumb
    rhand rfingers
  end

#!OML:ASF H:\Swim 2\Project 1\Capture day 1\Session 1\male.ASF
:FULLY-SPECIFIED
:DEGREES
1058
root 1.17822 14.5037 9.41893 107.216 2.71741 -4.5475
lowerback -24.6941 4.16462 -4.89826
upperback -4.53848 6.33156 7.91647
thorax 7.10766 3.06608 13.7702
lowerneck -18.5255 1.31979 8.20411
upperneck 41.1673 1.8559 -7.79066
head 18.9943 1.02069 -4.87064
rclavicle 4.6118e-014 -2.29596e-014
rhumerus 86.4806 -26.5448 -7.02246
rradius 35.4499
rwrist -15.378
rhand -21.4176 -3.37225
rfingers 7.12502
rthumb 4.97117 -33.2939
lclavicle 4.6118e-014 -2.29596e-014
lhumerus -51.3683 -52.2069 81.7631
lradius 57.6515
lwrist 39.3268
lhand -37.5073 -8.26324
lfingers 7.12502
lthumb -10.564 21.4513
rfemur -46.0425 4.3614 17.0743
rtibia 19.1882
rfoot 16.0525 -6.22776
rtoes 20.1801
lfemur -35.6631 8.93268 -32.3932
ltibia 57.924
lfoot 9.44016 0.171577
ltoes 6.89935
1059
root 1.21893 14.5093 9.41716 107.129 2.85448 -4.33118
lowerback -24.6306 4.31014 -4.84531
upperback -4.51382 6.50741 8.06903
thorax 7.04243 3.16009 13.9622
lowerneck -18.1704 1.40685 8.29761
upperneck 41.4001 1.95424 -7.73784
head 19.057 1.09669 -4.85174
rclavicle 2.38542e-014 2.01766e-014
rhumerus 86.1842 -26.2594 -6.68926
rradius 35.5702
rwrist -15.5845
rhand -22.2676 -3.6377
rfingers 7.12502
rthumb 4.15036 -33.577
lclavicle 2.38542e-014 2.01766e-014
lhumerus -53.9547 -51.5789 83.3007
lradius 58.3273
lwrist 40.0215
lhand -37.9944 -8.28499
lfingers 7.12502
lthumb -11.0339 21.405
rfemur -45.8613 4.00382 17.1257
rtibia 20.6452
rfoot 16.9281 -5.121
rtoes 20.292
lfemur -36.059 8.7323 -32.4864
ltibia 59.2004
lfoot 9.72327 -0.586753
ltoes 7.186
1060
root 1.25941 14.515 9.41369 107.049 3.00679 -4.10481
lowerback -24.5719 4.44875 -4.76255
upperback -4.49341 6.66639 8.21573
thorax 6.98294 3.24583 14.1246
lowerneck -17.8123 1.47074 8.36605
upperneck 41.5762 2.02661 -7.68027
head 19.0788 1.15711 -4.82625
rclavicle -3.33958e-014 2.18663e-015
rhumerus 85.8635 -25.979 -6.31995
rradius 35.6752
rwrist -15.7151
rhand -22.9898 -3.95082
rfingers 7.12502
rthumb 3.45291 -33.9026
lclavicle -3.33958e-014 2.18663e-015
lhumerus -56.5796 -50.9597 84.8245
lradius 59.0008
lwrist 40.7479
lhand -38.3942 -8.2583
lfingers 7.12502
lthumb -11.4195 21.4107
rfemur -45.6275 3.65918 17.1533
rtibia 22.1387
rfoot 17.8444 -4.09587
rtoes 20.4604
lfemur -36.5335 8.50875 -32.5569
ltibia 60.3605
lfoot 9.99161 -1.31704
ltoes 7.34805
1061
root 1.29948 14.5208 9.40861 106.982 3.17779 -3.88001
lowerback -24.5232 4.58321 -4.6485
upperback -4.47649 6.81176 8.35812
thorax 6.93217 3.32462 14.2604
lowerneck -17.4449 1.51239 8.42056
upperneck 41.6735 2.08545 -7.65311
head 19.0461 1.20321 -4.80946
rclavicle -3.18055e-015 4.35338e-014
rhumerus 85.5292 -25.707 -5.92225
rradius 35.771
rwrist -15.8182
rhand -23.5794 -4.25646
rfingers 7.12502
rthumb 2.88358 -34.2167
lclavicle -3.18055e-015 4.35338e-014
lhumerus -59.2285 -50.334 86.3263
lradius 59.6655
lwrist 41.4406
lhand -38.7118 -8.13656
lfingers 7.12502
lthumb -11.7257 21.5153
rfemur -45.3437 3.33659 17.1618
rtibia 23.638
rfoot 18.7967 -3.17221
rtoes 20.6859
lfemur -37.0838 8.27586 -32.6019
ltibia 61.3721
lfoot 10.2399 -1.99662
ltoes 7.40096
1062
root 1.33899 14.5267 9.40207 106.935 3.36793 -3.66963
lowerback -24.4892 4.71681 -4.50723
upperback -4.46264 6.9491 8.49753
thorax 6.89106 3.39912 14.3759
lowerneck -17.061 1.5369 8.47062
upperneck 41.6811 2.1433 -7.67564
head 18.9522 1.23856 -4.80939
rclavicle -8.5875e-014 -1.7344e-014
rhumerus 85.1902 -25.4464 -5.50454
rradius 35.8636
rwrist -15.9311
rhand -24.0463 -4.50273
rfingers 7.12502
rthumb 2.4326 -34.4686
lclavicle -8.5875e-014 -1.7344e-014
lhumerus -61.8831 -49.6889 87.7989
lradius 60.3153
lwrist 42.0471
lhand -38.9686 -7.89776
lfingers 7.12502
lthumb -11.9734 21.7398
rfemur -45.0182 3.04355 17.1537
rtibia 25.1234
rfoot 19.7787 -2.34722
rtoes 20.9504
lfemur -37.7043 8.04811 -32.6224
ltibia 62.2029
lfoot 10.4594 -2.60002
ltoes 7.35625
